REM DIRINDEX 1\2,1\3,1\4
REM DIRNAME folder01,folder02,folder03,folder04
TITLE ""
FILE "Track23.mp3" MP3
  TRACK 01 AUDIO
    TITLE "0:"
    INDEX 01 00:00:00
  TRACK 02 AUDIO
    TITLE "4:cjc153_1373"
    INDEX 01 00:00:07
  TRACK 03 AUDIO
    TITLE "0:"
    INDEX 01 00:02:14
  TRACK 04 AUDIO
    TITLE "2:cjc153_1374"
    INDEX 01 00:02:71
  TRACK 05 AUDIO
    TITLE "0:"
    INDEX 01 00:04:03
  TRACK 06 AUDIO
    TITLE "3:cjc153_1375"
    INDEX 01 00:04:33
  TRACK 07 AUDIO
    TITLE "0:"
    INDEX 01 00:05:42
  TRACK 08 AUDIO
    TITLE "2:cjc153_1376"
    INDEX 01 00:06:14
  TRACK 09 AUDIO
    TITLE "0:"
    INDEX 01 00:07:29
  TRACK 10 AUDIO
    TITLE "3:cjc153_1377"
    INDEX 01 00:07:62
  TRACK 11 AUDIO
    TITLE "0:"
    INDEX 01 00:09:08
  TRACK 12 AUDIO
    TITLE "2:cjc153_1378"
    INDEX 01 00:09:53
  TRACK 13 AUDIO
    TITLE "0:"
    INDEX 01 00:10:63
  TRACK 14 AUDIO
    TITLE "3:cjc153_1379"
    INDEX 01 00:11:21
  TRACK 15 AUDIO
    TITLE "0:"
    INDEX 01 00:12:36
  TRACK 16 AUDIO
    TITLE "2:cjc153_1380"
    INDEX 01 00:13:06
  TRACK 17 AUDIO
    TITLE "0:"
    INDEX 01 00:14:13
  TRACK 18 AUDIO
    TITLE "3:cjc153_1381"
    INDEX 01 00:14:47
  TRACK 19 AUDIO
    TITLE "0:"
    INDEX 01 00:15:62
  TRACK 20 AUDIO
    TITLE "2:cjc153_1382"
    INDEX 01 00:16:34
  TRACK 21 AUDIO
    TITLE "0:"
    INDEX 01 00:17:39
  TRACK 22 AUDIO
    TITLE "3:cjc153_1383"
    INDEX 01 00:17:70
  TRACK 23 AUDIO
    TITLE "0:"
    INDEX 01 00:19:09
  TRACK 24 AUDIO
    TITLE "2:cjc153_1384"
    INDEX 01 00:19:56
  TRACK 25 AUDIO
    TITLE "0:"
    INDEX 01 00:20:53
  TRACK 26 AUDIO
    TITLE "3:cjc153_1385"
    INDEX 01 00:21:13
  TRACK 27 AUDIO
    TITLE "0:"
    INDEX 01 00:22:21
  TRACK 28 AUDIO
    TITLE "2:cjc153_1386"
    INDEX 01 00:22:66
  TRACK 29 AUDIO
    TITLE "0:"
    INDEX 01 00:23:63
  TRACK 30 AUDIO
    TITLE "3:cjc153_1387"
    INDEX 01 00:24:22
  TRACK 31 AUDIO
    TITLE "0:"
    INDEX 01 00:25:23
  TRACK 32 AUDIO
    TITLE "2:cjc153_1388"
    INDEX 01 00:25:68
  TRACK 33 AUDIO
    TITLE "0:"
    INDEX 01 00:27:14
  TRACK 34 AUDIO
    TITLE "3:cjc153_1389"
    INDEX 01 00:27:47
  TRACK 35 AUDIO
    TITLE "0:"
    INDEX 01 00:28:74
  TRACK 36 AUDIO
    TITLE "2:cjc153_1390"
    INDEX 01 00:29:46
  TRACK 37 AUDIO
    TITLE "0:"
    INDEX 01 00:30:48
  TRACK 38 AUDIO
    TITLE "3:cjc153_1391"
    INDEX 01 00:31:06
  TRACK 39 AUDIO
    TITLE "0:"
    INDEX 01 00:32:09
  TRACK 40 AUDIO
    TITLE "2:cjc153_1392"
    INDEX 01 00:32:56
  TRACK 41 AUDIO
    TITLE "0:"
    INDEX 01 00:33:66
  TRACK 42 AUDIO
    TITLE "3:cjc153_1393"
    INDEX 01 00:34:24
  TRACK 43 AUDIO
    TITLE "0:"
    INDEX 01 00:35:39
  TRACK 44 AUDIO
    TITLE "2:cjc153_1394"
    INDEX 01 00:36:11
  TRACK 45 AUDIO
    TITLE "0:"
    INDEX 01 00:37:12
  TRACK 46 AUDIO
    TITLE "3:cjc153_1395"
    INDEX 01 00:37:46
  TRACK 47 AUDIO
    TITLE "0:"
    INDEX 01 00:38:51
  TRACK 48 AUDIO
    TITLE "2:cjc153_1396"
    INDEX 01 00:39:21
  TRACK 49 AUDIO
    TITLE "0:"
    INDEX 01 00:40:30
  TRACK 50 AUDIO
    TITLE "3:cjc153_1397"
    INDEX 01 00:40:64
  TRACK 51 AUDIO
    TITLE "0:"
    INDEX 01 00:42:00
  TRACK 52 AUDIO
    TITLE "2:cjc153_1398"
    INDEX 01 00:42:45
  TRACK 53 AUDIO
    TITLE "0:"
    INDEX 01 00:43:50
  TRACK 54 AUDIO
    TITLE "3:cjc153_1399"
    INDEX 01 00:44:05
  TRACK 55 AUDIO
    TITLE "0:"
    INDEX 01 00:45:14
  TRACK 56 AUDIO
    TITLE "2:cjc153_1400"
    INDEX 01 00:45:61
  TRACK 57 AUDIO
    TITLE "0:"
    INDEX 01 00:46:62
  TRACK 58 AUDIO
    TITLE "3:cjc153_1401"
    INDEX 01 00:47:21
  TRACK 59 AUDIO
    TITLE "0:"
    INDEX 01 00:48:30
  TRACK 60 AUDIO
    TITLE "2:cjc153_1402"
    INDEX 01 00:48:73
  TRACK 61 AUDIO
    TITLE "0:"
    INDEX 01 00:50:09
  TRACK 62 AUDIO
    TITLE "3:cjc153_1403"
    INDEX 01 00:50:42
  TRACK 63 AUDIO
    TITLE "0:"
    INDEX 01 00:51:60
  TRACK 64 AUDIO
    TITLE "2:cjc153_1404"
    INDEX 01 00:52:30
  TRACK 65 AUDIO
    TITLE "0:"
    INDEX 01 00:53:45
  TRACK 66 AUDIO
    TITLE "3:cjc153_1405"
    INDEX 01 00:54:01
  TRACK 67 AUDIO
    TITLE "0:"
    INDEX 01 00:55:18
  TRACK 68 AUDIO
    TITLE "2:cjc153_1406"
    INDEX 01 00:55:63
  TRACK 69 AUDIO
    TITLE "0:"
    INDEX 01 00:57:01
  TRACK 70 AUDIO
    TITLE "3:cjc153_1407"
    INDEX 01 00:57:33
  TRACK 71 AUDIO
    TITLE "0:"
    INDEX 01 00:58:48
  TRACK 72 AUDIO
    TITLE "2:cjc153_1408"
    INDEX 01 00:59:18
  TRACK 73 AUDIO
    TITLE "0:"
    INDEX 01 01:00:33
  TRACK 74 AUDIO
    TITLE "3:cjc153_1409"
    INDEX 01 01:00:66
  TRACK 75 AUDIO
    TITLE "0:"
    INDEX 01 01:02:12
  TRACK 76 AUDIO
    TITLE "2:cjc153_1410"
    INDEX 01 01:02:57
  TRACK 77 AUDIO
    TITLE "0:"
    INDEX 01 01:03:65
  TRACK 78 AUDIO
    TITLE "3:cjc153_1411"
    INDEX 01 01:04:23
  TRACK 79 AUDIO
    TITLE "0:"
    INDEX 01 01:05:36
  TRACK 80 AUDIO
    TITLE "2:cjc153_1412"
    INDEX 01 01:06:08
  TRACK 81 AUDIO
    TITLE "0:"
    INDEX 01 01:07:08
  TRACK 82 AUDIO
    TITLE "3:cjc153_1413"
    INDEX 01 01:07:43
  TRACK 83 AUDIO
    TITLE "0:"
    INDEX 01 01:08:52
  TRACK 84 AUDIO
    TITLE "2:cjc153_1414"
    INDEX 01 01:09:20
  TRACK 85 AUDIO
    TITLE "0:"
    INDEX 01 01:10:35
  TRACK 86 AUDIO
    TITLE "3:cjc153_1415"
    INDEX 01 01:10:69
  TRACK 87 AUDIO
    TITLE "0:"
    INDEX 01 01:12:15
  TRACK 88 AUDIO
    TITLE "2:cjc153_1416"
    INDEX 01 01:12:58
  TRACK 89 AUDIO
    TITLE "0:"
    INDEX 01 01:14:17
  TRACK 90 AUDIO
    TITLE "3:cjc153_1417"
    INDEX 01 01:14:49
  TRACK 91 AUDIO
    TITLE "0:"
    INDEX 01 01:16:11
  TRACK 92 AUDIO
    TITLE "2:cjc153_1418"
    INDEX 01 01:16:56
  TRACK 93 AUDIO
    TITLE "0:"
    INDEX 01 01:17:69
  TRACK 94 AUDIO
    TITLE "3:cjc153_1419"
    INDEX 01 01:18:25
  TRACK 95 AUDIO
    TITLE "0:"
    INDEX 01 01:19:42
  TRACK 96 AUDIO
    TITLE "2:cjc153_1420"
    INDEX 01 01:20:12
  TRACK 97 AUDIO
    TITLE "0:"
    INDEX 01 01:21:12
  TRACK 98 AUDIO
    TITLE "3:cjc153_1421"
    INDEX 01 01:21:43
  TRACK 99 AUDIO
    TITLE "0:"
    INDEX 01 01:22:46
  TRACK 100 AUDIO
    TITLE "2:cjc153_1422"
    INDEX 01 01:23:09
  TRACK 101 AUDIO
    TITLE "0:"
    INDEX 01 01:24:18
  TRACK 102 AUDIO
    TITLE "3:cjc153_1423"
    INDEX 01 01:24:47
  TRACK 103 AUDIO
    TITLE "0:"
    INDEX 01 01:25:64
  TRACK 104 AUDIO
    TITLE "2:cjc153_1424"
    INDEX 01 01:26:36
  TRACK 105 AUDIO
    TITLE "0:"
    INDEX 01 01:27:48
  TRACK 106 AUDIO
    TITLE "3:cjc153_1425"
    INDEX 01 01:28:04
  TRACK 107 AUDIO
    TITLE "0:"
    INDEX 01 01:29:23
  TRACK 108 AUDIO
    TITLE "2:cjc153_1426"
    INDEX 01 01:29:62
  TRACK 109 AUDIO
    TITLE "0:"
    INDEX 01 01:31:12
  TRACK 110 AUDIO
    TITLE "3:cjc153_1427"
    INDEX 01 01:31:39
  TRACK 111 AUDIO
    TITLE "0:"
    INDEX 01 01:32:70
  TRACK 112 AUDIO
    TITLE "2:cjc153_1428"
    INDEX 01 01:33:42
  TRACK 113 AUDIO
    TITLE "0:"
    INDEX 01 01:34:55
  TRACK 114 AUDIO
    TITLE "3:cjc153_1429"
    INDEX 01 01:35:10
  TRACK 115 AUDIO
    TITLE "0:"
    INDEX 01 01:36:27
  TRACK 116 AUDIO
    TITLE "2:cjc153_1430"
    INDEX 01 01:36:74
  TRACK 117 AUDIO
    TITLE "0:"
    INDEX 01 01:38:24
  TRACK 118 AUDIO
    TITLE "3:cjc153_1431"
    INDEX 01 01:38:55
  TRACK 119 AUDIO
    TITLE "0:"
    INDEX 01 01:40:17
  TRACK 120 AUDIO
    TITLE "2:cjc153_1432"
    INDEX 01 01:40:64
  TRACK 121 AUDIO
    TITLE "0:"
    INDEX 01 01:41:54
  TRACK 122 AUDIO
    TITLE "3:cjc153_1433"
    INDEX 01 01:42:24
  TRACK 123 AUDIO
    TITLE "0:"
    INDEX 01 01:43:23
  TRACK 124 AUDIO
    TITLE "2:cjc153_1434"
    INDEX 01 01:43:72
  TRACK 125 AUDIO
    TITLE "0:"
    INDEX 01 01:45:08
  TRACK 126 AUDIO
    TITLE "3:cjc153_1435"
    INDEX 01 01:45:42
  TRACK 127 AUDIO
    TITLE "0:"
    INDEX 01 01:46:57
  TRACK 128 AUDIO
    TITLE "2:cjc153_1436"
    INDEX 01 01:47:29
  TRACK 129 AUDIO
    TITLE "0:"
    INDEX 01 01:48:32
  TRACK 130 AUDIO
    TITLE "3:cjc153_1437"
    INDEX 01 01:48:65
  TRACK 131 AUDIO
    TITLE "0:"
    INDEX 01 01:50:00
  TRACK 132 AUDIO
    TITLE "2:cjc153_1438"
    INDEX 01 01:50:45
  TRACK 133 AUDIO
    TITLE "0:"
    INDEX 01 01:51:54
  TRACK 134 AUDIO
    TITLE "3:cjc153_1439"
    INDEX 01 01:52:12
  TRACK 135 AUDIO
    TITLE "0:"
    INDEX 01 01:53:29
  TRACK 136 AUDIO
    TITLE "2:cjc153_1440"
    INDEX 01 01:54:03
  TRACK 137 AUDIO
    TITLE "0:"
    INDEX 01 01:55:13
  TRACK 138 AUDIO
    TITLE "3:cjc153_1441"
    INDEX 01 01:55:44
  TRACK 139 AUDIO
    TITLE "0:"
    INDEX 01 01:56:53
  TRACK 140 AUDIO
    TITLE "2:cjc153_1442"
    INDEX 01 01:57:23
  TRACK 141 AUDIO
    TITLE "0:"
    INDEX 01 01:58:32
  TRACK 142 AUDIO
    TITLE "3:cjc153_1443"
    INDEX 01 01:58:66
  TRACK 143 AUDIO
    TITLE "0:"
    INDEX 01 02:00:00
  TRACK 144 AUDIO
    TITLE "2:cjc153_1444"
    INDEX 01 02:00:45
  TRACK 145 AUDIO
    TITLE "0:"
    INDEX 01 02:01:74
  TRACK 146 AUDIO
    TITLE "3:cjc153_1445"
    INDEX 01 02:02:32
  TRACK 147 AUDIO
    TITLE "0:"
    INDEX 01 02:03:69
  TRACK 148 AUDIO
    TITLE "2:cjc153_1446"
    INDEX 01 02:04:39
  TRACK 149 AUDIO
    TITLE "0:"
    INDEX 01 02:05:50
  TRACK 150 AUDIO
    TITLE "3:cjc153_1447"
    INDEX 01 02:06:08
  TRACK 151 AUDIO
    TITLE "0:"
    INDEX 01 02:07:27
  TRACK 152 AUDIO
    TITLE "2:cjc153_1448"
    INDEX 01 02:08:00
  TRACK 153 AUDIO
    TITLE "0:"
    INDEX 01 02:09:03
  TRACK 154 AUDIO
    TITLE "3:cjc153_1449"
    INDEX 01 02:09:36
  TRACK 155 AUDIO
    TITLE "0:"
    INDEX 01 02:10:47
  TRACK 156 AUDIO
    TITLE "2:cjc153_1450"
    INDEX 01 02:11:15
  TRACK 157 AUDIO
    TITLE "0:"
    INDEX 01 02:12:21
  TRACK 158 AUDIO
    TITLE "3:cjc153_1451"
    INDEX 01 02:12:52
  TRACK 159 AUDIO
    TITLE "0:"
    INDEX 01 02:13:59
  TRACK 160 AUDIO
    TITLE "2:cjc153_1452"
    INDEX 01 02:14:28
  TRACK 161 AUDIO
    TITLE "0:"
    INDEX 01 02:15:33
  TRACK 162 AUDIO
    TITLE "3:cjc153_1453"
    INDEX 01 02:15:68
  TRACK 163 AUDIO
    TITLE "0:"
    INDEX 01 02:17:00
  TRACK 164 AUDIO
    TITLE "2:cjc153_1454"
    INDEX 01 02:17:45
  TRACK 165 AUDIO
    TITLE "0:"
    INDEX 01 02:18:51
  TRACK 166 AUDIO
    TITLE "3:cjc153_1455"
    INDEX 01 02:19:07
  TRACK 167 AUDIO
    TITLE "0:"
    INDEX 01 02:20:18
  TRACK 168 AUDIO
    TITLE "2:cjc153_1456"
    INDEX 01 02:20:63
  TRACK 169 AUDIO
    TITLE "0:"
    INDEX 01 02:21:57
  TRACK 170 AUDIO
    TITLE "3:cjc153_1457"
    INDEX 01 02:22:15
  TRACK 171 AUDIO
    TITLE "0:"
    INDEX 01 02:23:15
  TRACK 172 AUDIO
    TITLE "2:cjc153_1458"
    INDEX 01 02:23:60
  TRACK 173 AUDIO
    TITLE "0:"
    INDEX 01 02:24:63
  TRACK 174 AUDIO
    TITLE "3:cjc153_1459"
    INDEX 01 02:25:23
  TRACK 175 AUDIO
    TITLE "0:"
    INDEX 01 02:26:29
  TRACK 176 AUDIO
    TITLE "2:cjc153_1460"
    INDEX 01 02:26:64
  TRACK 177 AUDIO
    TITLE "0:"
    INDEX 01 02:27:69
  TRACK 178 AUDIO
    TITLE "3:cjc153_1461"
    INDEX 01 02:28:24
  TRACK 179 AUDIO
    TITLE "0:"
    INDEX 01 02:29:35
  TRACK 180 AUDIO
    TITLE "2:cjc153_1462"
    INDEX 01 02:30:03
  TRACK 181 AUDIO
    TITLE "0:"
    INDEX 01 02:31:01
  TRACK 182 AUDIO
    TITLE "3:cjc153_1463"
    INDEX 01 02:31:34
  TRACK 183 AUDIO
    TITLE "0:"
    INDEX 01 02:32:24
  TRACK 184 AUDIO
    TITLE "2:cjc153_1464"
    INDEX 01 02:33:11
  TRACK 185 AUDIO
    TITLE "0:"
    INDEX 01 02:34:15
  TRACK 186 AUDIO
    TITLE "3:cjc153_1465"
    INDEX 01 02:34:46
  TRACK 187 AUDIO
    TITLE "0:"
    INDEX 01 02:35:53
  TRACK 188 AUDIO
    TITLE "2:cjc153_1466"
    INDEX 01 02:36:23
  TRACK 189 AUDIO
    TITLE "0:"
    INDEX 01 02:37:38
  TRACK 190 AUDIO
    TITLE "3:cjc153_1467"
    INDEX 01 02:37:72
  TRACK 191 AUDIO
    TITLE "0:"
    INDEX 01 02:39:12
  TRACK 192 AUDIO
    TITLE "2:cjc153_1468"
    INDEX 01 02:39:55
  TRACK 193 AUDIO
    TITLE "0:"
    INDEX 01 02:40:58
  TRACK 194 AUDIO
    TITLE "3:cjc153_1469"
    INDEX 01 02:41:19
  TRACK 195 AUDIO
    TITLE "0:"
    INDEX 01 02:42:06
  TRACK 196 AUDIO
    TITLE "2:cjc153_1470"
    INDEX 01 02:42:63
  TRACK 197 AUDIO
    TITLE "0:"
    INDEX 01 02:43:64
  TRACK 198 AUDIO
    TITLE "3:cjc153_1471"
    INDEX 01 02:44:23
  TRACK 199 AUDIO
    TITLE "0:"
    INDEX 01 02:45:30
  TRACK 200 AUDIO
    TITLE "2:cjc153_1472"
    INDEX 01 02:46:00
  TRACK 201 AUDIO
    TITLE "0:"
    INDEX 01 02:47:09
  TRACK 202 AUDIO
    TITLE "3:cjc153_1473"
    INDEX 01 02:47:41
  TRACK 203 AUDIO
    TITLE "0:"
    INDEX 01 02:48:48
  TRACK 204 AUDIO
    TITLE "2:cjc153_1474"
    INDEX 01 02:49:18
  TRACK 205 AUDIO
    TITLE "0:"
    INDEX 01 02:50:25
  TRACK 206 AUDIO
    TITLE "3:cjc153_1475"
    INDEX 01 02:50:59
  TRACK 207 AUDIO
    TITLE "0:"
    INDEX 01 02:52:03
  TRACK 208 AUDIO
    TITLE "2:cjc153_1476"
    INDEX 01 02:52:46
  TRACK 209 AUDIO
    TITLE "0:"
    INDEX 01 02:53:39
  TRACK 210 AUDIO
    TITLE "3:cjc153_1477"
    INDEX 01 02:53:71
  TRACK 211 AUDIO
    TITLE "0:"
    INDEX 01 02:54:72
  TRACK 212 AUDIO
    TITLE "2:cjc153_1478"
    INDEX 01 02:55:40
  TRACK 213 AUDIO
    TITLE "0:"
    INDEX 01 02:56:44
  TRACK 214 AUDIO
    TITLE "3:cjc153_1479"
    INDEX 01 02:57:00
  TRACK 215 AUDIO
    TITLE "0:"
    INDEX 01 02:58:09
  TRACK 216 AUDIO
    TITLE "2:cjc153_1480"
    INDEX 01 02:58:52
  TRACK 217 AUDIO
    TITLE "0:"
    INDEX 01 02:59:54
  TRACK 218 AUDIO
    TITLE "3:cjc153_1481"
    INDEX 01 03:00:16
  TRACK 219 AUDIO
    TITLE "0:"
    INDEX 01 03:01:23
